<svg width="50" height="50" viewBox="0 0 50 50" fill="none" xmlns="http://www.w3.org/2000/svg">
<path d="M45.8334 27.0834V18.7501C45.8334 8.33341 41.6667 4.16675 31.2501 4.16675H18.7501C8.33341 4.16675 4.16675 8.33341 4.16675 18.7501V31.2501C4.16675 41.6667 8.33341 45.8334 18.7501 45.8334H27.0834" stroke="#1E63E9" stroke-width="3.5" stroke-linecap="round" stroke-linejoin="round"/>
<path d="M15.2708 30.1875L20.2291 23.75C20.9374 22.8333 22.2499 22.6667 23.1666 23.375L26.9791 26.375C27.8958 27.0834 29.2082 26.9167 29.9166 26.0209L34.7291 19.8125" stroke="#1E63E9" stroke-width="3.5" stroke-linecap="round" stroke-linejoin="round"/>
<path d="M40.5835 32.9583L41.1668 34.1457C41.4585 34.7291 42.1876 35.2707 42.8334 35.3957L43.6251 35.5207C46.0001 35.9166 46.5626 37.6666 44.8543 39.3957L44.1251 40.1249C43.6459 40.6249 43.3751 41.5832 43.521 42.2499L43.6251 42.6874C44.2709 45.5624 42.7501 46.6666 40.2501 45.1666L39.7084 44.8541C39.0626 44.4791 38.0209 44.4791 37.3751 44.8541L36.8334 45.1666C34.3126 46.6874 32.7918 45.5624 33.4584 42.6874L33.5626 42.2499C33.7084 41.5832 33.4376 40.6249 32.9585 40.1249L32.2293 39.3957C30.5209 37.6666 31.0834 35.9166 33.4584 35.5207L34.2501 35.3957C34.8751 35.2916 35.6251 34.7291 35.9168 34.1457L36.5001 32.9583C37.6251 30.6874 39.4585 30.6874 40.5835 32.9583Z" stroke="#1E63E9" stroke-width="3.5" stroke-linecap="round" stroke-linejoin="round"/>
</svg>
