<svg width="24" height="24" viewBox="0 0 24 24" fill="none" xmlns="http://www.w3.org/2000/svg">
<path opacity="0.4" d="M12 22C17.5228 22 22 17.5228 22 12C22 6.47715 17.5228 2 12 2C6.47715 2 2 6.47715 2 12C2 17.5228 6.47715 22 12 22Z" fill="#FF8B0D"/>
<path d="M12.2 17.3819C11.5 17.3819 10.79 17.1119 10.26 16.5819C9.74001 16.0619 9.45001 15.3719 9.45001 14.6419C9.45001 13.9119 9.74001 13.2119 10.26 12.7019L11.67 11.2919C11.96 11.0019 12.44 11.0019 12.73 11.2919C13.02 11.5819 13.02 12.0619 12.73 12.3519L11.32 13.7619C11.08 14.0019 10.95 14.3119 10.95 14.6419C10.95 14.9719 11.08 15.2919 11.32 15.5219C11.81 16.0119 12.6 16.0119 13.09 15.5219L15.31 13.3019C16.58 12.0319 16.58 9.97189 15.31 8.70189C14.04 7.43189 11.98 7.43189 10.71 8.70189L8.28998 11.1219C7.77998 11.6319 7.5 12.3019 7.5 13.0119C7.5 13.7219 7.77998 14.4019 8.28998 14.9019C8.57998 15.1919 8.57998 15.6719 8.28998 15.9619C7.99998 16.2519 7.51998 16.2519 7.22998 15.9619C6.43998 15.1719 6.01001 14.1219 6.01001 13.0019C6.01001 11.8819 6.43998 10.8319 7.22998 10.0419L9.65002 7.62188C11.5 5.77188 14.52 5.77188 16.37 7.62188C18.22 9.47188 18.22 12.4919 16.37 14.3419L14.15 16.5619C13.61 17.1119 12.91 17.3819 12.2 17.3819Z" fill="#FF8B0D"/>
</svg>
