<svg width="20" height="20" viewBox="0 0 20 20" fill="none" xmlns="http://www.w3.org/2000/svg">
<path d="M18.3332 10.0007V14.1673C18.3332 16.6673 16.6665 18.334 14.1665 18.334H5.83317C3.33317 18.334 1.6665 16.6673 1.6665 14.1673V10.0007C1.6665 7.73398 3.03317 6.15065 5.15817 5.88398C5.37484 5.85065 5.59984 5.83398 5.83317 5.83398H14.1665C14.3832 5.83398 14.5915 5.84231 14.7915 5.87564C16.9415 6.12564 18.3332 7.71732 18.3332 10.0007Z" stroke="#888888" stroke-width="1.5" stroke-linecap="round" stroke-linejoin="round"/>
<path d="M14.793 5.87435C14.593 5.84101 14.3847 5.83269 14.168 5.83269H5.83467C5.60133 5.83269 5.37633 5.84936 5.15967 5.88269C5.27633 5.64936 5.443 5.43269 5.643 5.23269L8.35134 2.51602C9.493 1.38268 11.343 1.38268 12.4847 2.51602L13.943 3.99103C14.4763 4.51603 14.7597 5.18268 14.793 5.87435Z" stroke="#888888" stroke-width="1.5" stroke-linecap="round" stroke-linejoin="round"/>
<path d="M18.3332 10.416H15.8332C14.9165 10.416 14.1665 11.166 14.1665 12.0827C14.1665 12.9993 14.9165 13.7493 15.8332 13.7493H18.3332" stroke="#888888" stroke-width="1.5" stroke-linecap="round" stroke-linejoin="round"/>
</svg>
