<svg width="40" height="40" viewBox="0 0 40 40" fill="none" xmlns="http://www.w3.org/2000/svg">
<path d="M27.9183 5.93337V3.33337C27.9183 2.65004 27.3517 2.08337 26.6683 2.08337C25.985 2.08337 25.4183 2.65004 25.4183 3.33337V5.83337H14.585V3.33337C14.585 2.65004 14.0183 2.08337 13.335 2.08337C12.6517 2.08337 12.085 2.65004 12.085 3.33337V5.93337C7.58502 6.35004 5.40168 9.03337 5.06835 13.0167C5.03502 13.5 5.43502 13.9 5.90168 13.9H34.1017C34.585 13.9 34.985 13.4834 34.935 13.0167C34.6017 9.03337 32.4183 6.35004 27.9183 5.93337Z" fill="#FF8B0D"/>
<path opacity="0.4" d="M33.3333 16.4C34.25 16.4 35 17.15 35 18.0667V28.3334C35 33.3334 32.5 36.6667 26.6667 36.6667H13.3333C7.5 36.6667 5 33.3334 5 28.3334V18.0667C5 17.15 5.75 16.4 6.66667 16.4H33.3333Z" fill="#FF8B0D"/>
<path d="M14.1667 25C13.7333 25 13.3 24.8166 12.9833 24.5166C12.6833 24.1999 12.5 23.7666 12.5 23.3333C12.5 22.9 12.6833 22.4666 12.9833 22.15C13.45 21.6833 14.1833 21.5333 14.8 21.7999C15.0167 21.8833 15.2 22 15.35 22.15C15.65 22.4666 15.8333 22.9 15.8333 23.3333C15.8333 23.7666 15.65 24.1999 15.35 24.5166C15.0333 24.8166 14.6 25 14.1667 25Z" fill="#FF8B0D"/>
<path d="M19.9987 25C19.5654 25 19.132 24.8166 18.8154 24.5166C18.5154 24.1999 18.332 23.7666 18.332 23.3333C18.332 22.9 18.5154 22.4666 18.8154 22.15C18.9654 22 19.1487 21.8833 19.3654 21.7999C19.982 21.5333 20.7154 21.6833 21.182 22.15C21.482 22.4666 21.6654 22.9 21.6654 23.3333C21.6654 23.7666 21.482 24.1999 21.182 24.5166C21.0987 24.5833 21.0154 24.6499 20.932 24.7166C20.832 24.7833 20.732 24.8333 20.632 24.8666C20.532 24.9166 20.432 24.95 20.332 24.9666C20.2154 24.9833 20.1154 25 19.9987 25Z" fill="#FF8B0D"/>
<path d="M25.8346 25C25.4013 25 24.968 24.8166 24.6513 24.5166C24.3513 24.2 24.168 23.7666 24.168 23.3333C24.168 22.9 24.3513 22.4667 24.6513 22.15C24.818 22 24.9846 21.8833 25.2013 21.8C25.5013 21.6666 25.8346 21.6333 26.168 21.7C26.268 21.7166 26.368 21.75 26.468 21.8C26.568 21.8333 26.668 21.8833 26.768 21.95C26.8513 22.0167 26.9346 22.0833 27.018 22.15C27.318 22.4667 27.5013 22.9 27.5013 23.3333C27.5013 23.7666 27.318 24.2 27.018 24.5166C26.9346 24.5833 26.8513 24.65 26.768 24.7166C26.668 24.7833 26.568 24.8333 26.468 24.8667C26.368 24.9167 26.268 24.95 26.168 24.9667C26.0513 24.9833 25.9346 25 25.8346 25Z" fill="#FF8B0D"/>
<path d="M14.1667 30.8334C13.95 30.8334 13.7333 30.7834 13.5333 30.7C13.3167 30.6167 13.15 30.5 12.9833 30.35C12.6833 30.0333 12.5 29.6 12.5 29.1667C12.5 28.7334 12.6833 28.3 12.9833 27.9834C13.15 27.8334 13.3167 27.7167 13.5333 27.6333C13.8333 27.5 14.1667 27.4667 14.5 27.5333C14.6 27.55 14.7 27.5833 14.8 27.6333C14.9 27.6667 15 27.7167 15.1 27.7834C15.1833 27.85 15.2667 27.9167 15.35 27.9834C15.65 28.3 15.8333 28.7334 15.8333 29.1667C15.8333 29.6 15.65 30.0333 15.35 30.35C15.2667 30.4167 15.1833 30.5 15.1 30.55C15 30.6167 14.9 30.6667 14.8 30.7C14.7 30.75 14.6 30.7834 14.5 30.8C14.3833 30.8167 14.2833 30.8334 14.1667 30.8334Z" fill="#FF8B0D"/>
<path d="M19.9987 30.8334C19.5654 30.8334 19.132 30.65 18.8154 30.35C18.5154 30.0333 18.332 29.6 18.332 29.1667C18.332 28.7334 18.5154 28.3 18.8154 27.9834C19.432 27.3667 20.5654 27.3667 21.182 27.9834C21.482 28.3 21.6654 28.7334 21.6654 29.1667C21.6654 29.6 21.482 30.0333 21.182 30.35C20.8654 30.65 20.432 30.8334 19.9987 30.8334Z" fill="#FF8B0D"/>
<path d="M25.8346 30.8334C25.4013 30.8334 24.968 30.65 24.6513 30.35C24.3513 30.0333 24.168 29.6 24.168 29.1667C24.168 28.7334 24.3513 28.3 24.6513 27.9834C25.268 27.3667 26.4013 27.3667 27.018 27.9834C27.318 28.3 27.5013 28.7334 27.5013 29.1667C27.5013 29.6 27.318 30.0333 27.018 30.35C26.7013 30.65 26.268 30.8334 25.8346 30.8334Z" fill="#FF8B0D"/>
</svg>
