<svg width="24" height="25" viewBox="0 0 24 25" fill="none" xmlns="http://www.w3.org/2000/svg">
<path d="M14.3498 2.5H9.64977C8.60977 2.5 7.75977 3.34 7.75977 4.38V5.32C7.75977 6.36 8.59977 7.2 9.63977 7.2H14.3498C15.3898 7.2 16.2298 6.36 16.2298 5.32V4.38C16.2398 3.34 15.3898 2.5 14.3498 2.5Z" fill="#FF8B0D"/>
<path d="M17.2391 5.31949C17.2391 6.90949 15.9391 8.20949 14.3491 8.20949H9.64906C8.05906 8.20949 6.75906 6.90949 6.75906 5.31949C6.75906 4.75949 6.15906 4.40949 5.65906 4.66949C4.24906 5.41949 3.28906 6.90949 3.28906 8.61949V18.0295C3.28906 20.4895 5.29906 22.4995 7.75906 22.4995H16.2391C18.6991 22.4995 20.7091 20.4895 20.7091 18.0295V8.61949C20.7091 6.90949 19.7491 5.41949 18.3391 4.66949C17.8391 4.40949 17.2391 4.75949 17.2391 5.31949ZM12.3791 17.4495H7.99906C7.58906 17.4495 7.24906 17.1095 7.24906 16.6995C7.24906 16.2895 7.58906 15.9495 7.99906 15.9495H12.3791C12.7891 15.9495 13.1291 16.2895 13.1291 16.6995C13.1291 17.1095 12.7891 17.4495 12.3791 17.4495ZM14.9991 13.4495H7.99906C7.58906 13.4495 7.24906 13.1095 7.24906 12.6995C7.24906 12.2895 7.58906 11.9495 7.99906 11.9495H14.9991C15.4091 11.9495 15.7491 12.2895 15.7491 12.6995C15.7491 13.1095 15.4091 13.4495 14.9991 13.4495Z" fill="#FF8B0D"/>
</svg>
