<svg width="30" height="28" viewBox="0 0 30 28" fill="none" xmlns="http://www.w3.org/2000/svg">
<path d="M26.6769 9.06619H12.9908C12.5348 9.06613 12.0991 8.8774 11.7872 8.54472L10.0233 6.66417C9.71082 6.3312 9.27445 6.14252 8.81781 6.14307H3.07229C2.1608 6.14307 1.42188 6.882 1.42188 7.79348V26.2C1.42188 27.1125 2.16159 27.8522 3.0741 27.8522H26.6737C27.5862 27.8522 28.3259 27.1125 28.3259 26.2V10.7167C28.3259 9.80567 27.5878 9.06698 26.6769 9.06619V9.06619Z" fill="#EAB54E"/>
<path d="M5.36719 0.147949H25.4248V18.107H5.36719V0.147949Z" fill="#DBD8DD"/>
<path d="M4.32031 1.81543H23.7672V19.1641H4.32031V1.81543Z" fill="#EEEFEE"/>
<path d="M6.51562 4.02148H21.5654V4.81111H6.51562V4.02148Z" fill="#DBD8DD"/>
<path d="M6.51562 6.53027H21.5654V7.3199H6.51562V6.53027Z" fill="#DBD8DD"/>
<path d="M6.51562 9.03809H21.5654V9.82771H6.51562V9.03809Z" fill="#DBD8DD"/>
<path d="M27.9381 11.7139H12.9876C12.5327 11.7139 12.098 11.9016 11.786 12.2328L10.0214 14.1062C9.70958 14.4374 9.27484 14.6252 8.81989 14.6252H2.07235C1.16086 14.6252 0.421935 15.3641 0.421875 16.2756C0.421875 16.3257 0.424168 16.3758 0.428695 16.4257L1.28236 26.3496C1.35998 27.2004 2.07344 27.8517 2.92783 27.8517H26.8163C27.6707 27.8517 28.3842 27.2002 28.4617 26.3493L29.5807 13.5147C29.6638 12.6071 28.9953 11.8039 28.0876 11.7207C28.0379 11.7162 27.9881 11.7139 27.9381 11.7139V11.7139Z" fill="#F6C863"/>
</svg>
