<svg width="36" height="46" viewBox="0 0 36 46" fill="none" xmlns="http://www.w3.org/2000/svg">
<path fill-rule="evenodd" clip-rule="evenodd" d="M6.77755 0H22.1569L35.1913 13.5862V40.0115C35.1913 43.3218 32.5132 46 29.2143 46H6.77755C3.46721 46 0.789063 43.3218 0.789063 40.0115V5.98848C0.789004 2.67815 3.46716 0 6.77755 0V0Z" fill="#888888"/>
<path opacity="0.302" fill-rule="evenodd" clip-rule="evenodd" d="M22.1328 0V13.4828H35.1788L22.1328 0Z" fill="white"/>
<path d="M8.00781 32.9081V24.5518H11.5595C12.4331 24.5518 13.1342 24.7931 13.663 25.2874C14.1802 25.7701 14.4446 26.4138 14.4446 27.2299C14.4446 28.0345 14.1802 28.6897 13.663 29.1724C13.1342 29.6552 12.4331 29.8966 11.5595 29.8966H10.1342V32.9081H8.00781ZM10.1343 28.0805H11.3182C11.64 28.0805 11.8814 28.0115 12.0653 27.8621C12.2377 27.7127 12.3182 27.4943 12.3182 27.2299C12.3182 26.9541 12.2378 26.7472 12.0653 26.5977C11.8815 26.4483 11.6401 26.3679 11.3182 26.3679H10.1343V28.0805ZM15.3412 32.9081V24.5518H18.8929C19.7664 24.5518 20.4676 24.7931 20.9963 25.2874C21.525 25.7701 21.7779 26.4138 21.7779 27.2299C21.7779 28.0345 21.525 28.6897 20.9963 29.1724C20.4676 29.6552 19.7664 29.8966 18.8929 29.8966H17.4791V32.9081H15.3412ZM17.4791 28.0805H18.6515C18.9733 28.0805 19.2262 28.0115 19.3986 27.8621C19.571 27.7127 19.663 27.4943 19.663 27.2299C19.663 26.9541 19.5711 26.7472 19.3986 26.5977C19.2262 26.4483 18.9734 26.3679 18.6515 26.3679H17.4791V28.0805ZM24.8469 32.9081V26.3679H22.4676V24.5518H29.3757V26.3679H26.9849V32.9081H24.8469Z" fill="white"/>
</svg>
