<svg width="48" height="44" viewBox="0 0 48 44" fill="none" xmlns="http://www.w3.org/2000/svg">
<path d="M42.5406 14.1641H20.8039C20.0796 14.164 19.3876 13.8643 18.8922 13.3359L16.0907 10.3491C15.5945 9.82028 14.9014 9.52062 14.1762 9.52149H5.05093C3.60328 9.52149 2.42969 10.6951 2.42969 12.1427V41.3766C2.42969 42.8258 3.60453 44.0007 5.05381 44.0007H42.5355C43.9848 44.0007 45.1596 42.8258 45.1596 41.3766V16.7854C45.1596 15.3386 43.9873 14.1653 42.5406 14.1641Z" fill="#888888"/>
<path d="M8.70312 0H40.5593V28.5231H8.70312V0Z" fill="#DBD8DD"/>
<path d="M7.03125 2.64844H37.9175V30.2022H7.03125V2.64844Z" fill="#EEEFEE"/>
<path d="M10.5234 6.15234H34.426V7.40646H10.5234V6.15234Z" fill="#DBD8DD"/>
<path d="M10.5234 10.1367H34.426V11.3908H10.5234V10.1367Z" fill="#DBD8DD"/>
<path d="M10.5234 14.1201H34.426V15.3742H10.5234V14.1201Z" fill="#DBD8DD"/>
<path d="M44.546 18.3691H20.8011C20.0786 18.3691 19.3881 18.6674 18.8927 19.1933L16.0901 22.1688C15.5948 22.6947 14.9043 22.993 14.1818 22.993H3.46509C2.01744 22.9931 0.843846 24.1666 0.84375 25.6142C0.84375 25.6939 0.847393 25.7734 0.854582 25.8527L2.2104 41.6141C2.33368 42.9654 3.46682 43.9998 4.82379 43.9998H42.7642C44.1213 43.9998 45.2545 42.9651 45.3776 41.6136L47.1548 21.2294C47.2868 19.7877 46.2251 18.5121 44.7835 18.3801C44.7045 18.3729 44.6253 18.3692 44.546 18.3691Z" fill="#888888"/>
</svg>
