<svg width="40" height="40" viewBox="0 0 40 40" fill="none" xmlns="http://www.w3.org/2000/svg">
<path d="M8.58203 36.6667C7.8987 36.6667 7.33203 36.1 7.33203 35.4167V4.58337C7.33203 3.90004 7.8987 3.33337 8.58203 3.33337C9.26537 3.33337 9.83203 3.90004 9.83203 4.58337V35.4167C9.83203 36.1 9.26537 36.6667 8.58203 36.6667Z" fill="#FF8B0D"/>
<path opacity="0.4" d="M30.0326 20.5501L27.9992 18.5167C27.5159 18.1001 27.2326 17.4834 27.2159 16.8001C27.1826 16.0501 27.4825 15.3001 28.0326 14.7501L30.0326 12.7501C31.7659 11.0167 32.4159 9.35006 31.8659 8.03339C31.3326 6.73339 29.6826 6.01672 27.2492 6.01672H8.58255C8.23255 6.03339 7.94922 6.31672 7.94922 6.66672V26.6667C7.94922 27.0167 8.23255 27.3001 8.58255 27.3001H27.2492C29.6492 27.3001 31.2659 26.5667 31.8159 25.2501C32.3659 23.9167 31.7326 22.2667 30.0326 20.5501Z" fill="#FF8B0D"/>
</svg>
