<svg width="24" height="25" viewBox="0 0 24 25" fill="none" xmlns="http://www.w3.org/2000/svg">
<path d="M6.44922 22.5C6.03922 22.5 5.69922 22.16 5.69922 21.75V3.25C5.69922 2.84 6.03922 2.5 6.44922 2.5C6.85922 2.5 7.19922 2.84 7.19922 3.25V21.75C7.19922 22.16 6.85922 22.5 6.44922 22.5Z" fill="#FF8B0D"/>
<path opacity="0.4" d="M15.2001 7.66004L7.10008 4.16004C6.98008 4.10004 6.85008 4.12004 6.74008 4.19004C6.64008 4.26004 6.58008 4.37004 6.58008 4.50004V17.5C6.58008 17.63 6.65008 17.75 6.76008 17.82C6.82008 17.86 6.89008 17.88 6.96008 17.88C7.02008 17.88 7.07008 17.87 7.13008 17.84L15.4301 13.74C15.4301 13.74 15.4301 13.74 15.4401 13.74C17.1001 12.88 17.9901 11.77 17.9401 10.6C17.8801 9.42004 16.9101 8.38004 15.2001 7.66004Z" fill="#FF8B0D"/>
</svg>
