<?xml version="1.0" encoding="utf-8"?>
<!-- Generator: Adobe Illustrator 27.9.0, SVG Export Plug-In . SVG Version: 6.00 Build 0)  -->
<svg version="1.1" xmlns="http://www.w3.org/2000/svg" xmlns:xlink="http://www.w3.org/1999/xlink" x="0px" y="0px"
	 viewBox="0 0 722.96 112.6" style="enable-background:new 0 0 722.96 112.6;" xml:space="preserve">
<style type="text/css">
	.st0{fill:#222221;stroke:#222221;stroke-width:13.7444;stroke-linecap:round;stroke-linejoin:round;stroke-miterlimit:10;}
	.st1{fill:none;stroke:#222221;stroke-width:15;stroke-linecap:round;stroke-linejoin:round;stroke-miterlimit:10;}
	.st2{fill:#EBB211;}
	.st3{fill:none;stroke:#222221;stroke-width:13.7444;stroke-linecap:round;stroke-linejoin:round;stroke-miterlimit:10;}
	.st4{fill:none;stroke:#222221;stroke-width:13;stroke-linecap:round;stroke-linejoin:round;stroke-miterlimit:10;}
</style>
<g id="Background">
</g>
<g id="Graphic_Elements">
	<g>
		<polygon class="st0" points="91.24,6.99 9.01,43.12 91.24,79.25 173.48,43.12 		"/>
		<polyline class="st1" points="151.73,61.8 151.73,78.4 91.32,104.95 91.24,104.95 30.83,78.4 30.83,61.8 		"/>
		<polygon class="st2" points="18.02,104.95 0,104.95 0,62.45 9.01,51.27 18.02,62.45 		"/>
		<line class="st3" x1="164.41" y1="97.51" x2="164.41" y2="52.67"/>
		<path class="st3" d="M173.48,97.51"/>
		<polygon class="st4" points="155.33,104.95 164.41,97.51 173.48,104.95 		"/>
	</g>
</g>
<g id="Text">
	<g>
		<path d="M224.16,28.23l-28.83,0.31l-0.11-9.67l70.17-0.76l0.11,9.67l-28.97,0.32l0.85,78.4l-12.37,0.13L224.16,28.23z"/>
		<path d="M298.26,78.13l-9.54,27.81l-12.66,0.14l31.24-88.42l14.76-0.16l33.3,87.71l-13.08,0.14l-10.43-27.59L298.26,78.13z
			 M329.24,68.9l-9.56-25.25c-2.17-5.73-3.64-10.94-5.1-16.02l-0.28,0c-1.35,5.24-2.84,10.62-4.61,15.99l-9,25.58L329.24,68.9z"/>
		<path d="M385.21,16.81l12.23-0.13l0.85,78.53l40.5-0.44l0.1,9.54l-52.73,0.57L385.21,16.81z"/>
		<path d="M468.47,16.95c5.9-0.98,13.62-1.85,23.46-1.95c12.09-0.13,20.98,2.38,26.66,7.03c5.25,4.12,8.41,10.49,8.5,18.33
			c0.09,7.97-2.38,14.27-7.11,18.89c-6.4,6.47-16.91,9.85-28.86,9.98c-3.66,0.04-7.03-0.05-9.85-0.68l0.38,35.28l-12.23,0.13
			L468.47,16.95z M481.17,59.28c2.68,0.62,6.06,0.85,10.13,0.8c14.77-0.16,23.69-6.92,23.56-19.07c-0.13-11.63-9.05-17.15-22.55-17
			c-5.34,0.06-9.42,0.49-11.52,1.04L481.17,59.28z"/>
		<path d="M580.93,102.76l-0.41-37.37l-30.5-50.37l13.92-0.15l13.62,24.16c3.73,6.62,6.6,11.95,9.62,18.06l0.28,0
			c2.61-5.78,5.78-11.56,9.36-18.27l13.38-24.45l13.92-0.15L592.9,65.12l0.41,37.5L580.93,102.76z"/>
		<path d="M651.81,101.98l-0.96-88.06l13.36-0.15L695.07,58c7.14,10.25,12.73,19.46,17.33,28.43l0.28-0.13
			c-1.25-11.75-1.65-22.46-1.8-36.18l-0.4-36.85L722,13.15l0.96,88.06l-12.37,0.13l-30.58-44.36c-6.72-9.73-13.15-19.72-18.04-29.21
			l-0.42,0.14c0.82,11.1,1.22,21.68,1.38,36.31l0.41,37.63L651.81,101.98z"/>
	</g>
</g>
</svg>
