<?xml version="1.0" encoding="utf-8"?>
<!-- Generator: Adobe Illustrator 27.9.0, SVG Export Plug-In . SVG Version: 6.00 Build 0)  -->
<svg version="1.1" xmlns="http://www.w3.org/2000/svg" xmlns:xlink="http://www.w3.org/1999/xlink" x="0px" y="0px"
	 viewBox="0 0 651.67 603.14" style="enable-background:new 0 0 651.67 603.14;" xml:space="preserve">
<style type="text/css">
	.st0{fill:#222221;stroke:#222221;stroke-width:13.7444;stroke-linecap:round;stroke-linejoin:round;stroke-miterlimit:10;}
	.st1{fill:none;stroke:#222221;stroke-width:15;stroke-linecap:round;stroke-linejoin:round;stroke-miterlimit:10;}
	.st2{fill:#EBB211;}
	.st3{fill:none;stroke:#222221;stroke-width:13.7444;stroke-linecap:round;stroke-linejoin:round;stroke-miterlimit:10;}
	.st4{fill:none;stroke:#222221;stroke-width:13;stroke-linecap:round;stroke-linejoin:round;stroke-miterlimit:10;}
</style>
<g id="Background">
</g>
<g id="Graphic_Elements">
</g>
<g id="Text">
	<g>
		<g>
			<polygon class="st0" points="341.15,6.87 37.5,169.72 341.15,332.56 644.8,169.72 			"/>
			<polyline class="st1" points="564.49,253.94 564.49,328.76 341.41,448.4 341.15,448.4 118.07,328.76 118.07,253.94 			"/>
			<polygon class="st2" points="70.77,448.4 4.23,448.4 4.23,256.87 37.5,206.46 70.77,256.87 			"/>
			<line class="st3" x1="611.29" y1="414.9" x2="611.29" y2="212.75"/>
			<path class="st3" d="M644.8,414.9"/>
			<polygon class="st4" points="577.79,448.4 611.29,414.9 644.8,448.4 			"/>
		</g>
		<g>
			<path d="M35.29,508.78H0v-10.92h85.89v10.92H50.43v88.58H35.29V508.78z"/>
			<path d="M125.31,566.06l-12.05,31.3H97.77l39.42-99.5h18.07l39.59,99.5h-16.01l-12.39-31.3H125.31z M163.35,556.02l-11.36-28.64
				c-2.58-6.5-4.3-12.4-6.02-18.16h-0.34c-1.72,5.91-3.61,11.96-5.85,18.01l-11.36,28.79H163.35z"/>
			<path d="M232.55,497.86h14.97v88.73h49.57v10.78h-64.55V497.86z"/>
			<path d="M334.45,499.04c7.23-1.03,16.7-1.92,28.74-1.92c14.8,0,25.65,2.95,32.53,8.27c6.37,4.72,10.16,11.96,10.16,20.82
				c0,9.01-3.1,16.09-8.95,21.26c-7.92,7.23-20.83,10.92-35.46,10.92c-4.48,0-8.61-0.15-12.05-0.89v39.86h-14.97V499.04z
				 M349.42,547.02c3.27,0.74,7.4,1.03,12.39,1.03c18.07,0,29.09-7.53,29.09-21.26c0-13.14-10.84-19.49-27.37-19.49
				c-6.54,0-11.53,0.44-14.11,1.03V547.02z"/>
			<path d="M470.95,597.36v-42.22l-36.66-57.28h17.04l16.35,27.46c4.48,7.53,7.92,13.58,11.53,20.52h0.34
				c3.27-6.5,7.23-12.99,11.7-20.52l16.7-27.46h17.04l-38.9,57.13v42.37H470.95z"/>
			<path d="M557.7,597.36v-99.5h16.35l37.18,50.34c8.61,11.66,15.32,22.14,20.83,32.33l0.34-0.15c-1.38-13.29-1.72-25.39-1.72-40.89
				v-41.63h14.11v99.5h-15.15l-36.83-50.49c-8.09-11.07-15.84-22.44-21.69-33.22l-0.52,0.15c0.86,12.55,1.2,24.51,1.2,41.04v42.52
				H557.7z"/>
		</g>
	</g>
</g>
</svg>
