<svg width="124" height="14" viewBox="0 0 124 14" fill="none" xmlns="http://www.w3.org/2000/svg">
<path d="M0.30072 0.0970066H10.5737V1.4648L3.87056 12.0579H8.30376L8.54628 11.7766L8.8858 9.29323H10.7095V13.4257H0V12.0579L6.69345 1.426H2.76469L2.38636 1.68791L2.04684 4.04517H0.30072V0.0970066Z" fill="#481EC0"/>
<path d="M12.6105 13.4257V12.2713L14.0462 12.1937L14.3566 11.8154V1.62001L14.0462 1.32899L12.6105 1.25138V0.0970066H19.7016V1.25138L18.2368 1.32899L17.9167 1.62001V11.8154L18.2368 12.1937L19.7016 12.2713V13.4257H12.6105Z" fill="#481EC0"/>
<path d="M26.7051 3.23032L25.1336 7.62472H28.3057L26.7051 3.23032ZM26.1813 0H29.043L33.6508 12.1161L34.8634 12.2713V13.4257H28.4318V12.2713L29.7802 12.1743L29.9355 11.9124L28.8878 8.95371H24.6583L23.6591 11.893L23.8628 12.1355L25.1336 12.2713V13.4257H20.3415V12.2713L21.6317 12.1937L26.1813 0Z" fill="#481EC0"/>
<path d="M34.572 0.0970066H46.7851V4.08398H45.1166L44.6995 1.68791L44.3405 1.4454H42.4586V11.8154L42.8369 12.1937L44.1465 12.2713V13.4257H37.1912V12.2713L38.5201 12.1937L38.8985 11.8154V1.4454H36.9777L36.6382 1.68791L36.2405 4.08398H34.572V0.0970066Z" fill="#481EC0"/>
<path d="M48.007 13.4257V12.2713L49.336 12.1937L49.6561 11.8154V1.62001L49.336 1.32899L48.007 1.25138V0.0970066H54.681V1.25138L53.5073 1.34839L53.1968 1.62001V6.61585H53.6334L58.0375 1.58121L57.9405 1.34839L56.7473 1.25138V0.0970066H61.714V1.25138L60.2104 1.34839L56.6503 5.40327L60.8022 12.1549L62.2767 12.2713V13.4257H57.1644V12.6497L54.1281 7.68292H53.1968V11.8154L53.5073 12.1937L54.681 12.2713V13.4257H48.007Z" fill="#481EC0"/>
<path d="M62.8583 13.4257V12.2713L64.1873 12.1937L64.5074 11.8154V1.62001L64.1873 1.32899L62.8583 1.25138V0.0970066H73.791V3.41463H72.103L71.7829 1.64911L71.5016 1.426H67.9706V5.8398H70.0562L70.3472 5.55848L70.5509 4.13248H71.9575V9.01191H70.5509L70.3472 7.58591L70.0562 7.30459H67.9706V12.0967H72.1224L72.3941 11.7766L72.753 9.57455H74.4021V13.4257H62.8583Z" fill="#481EC0"/>
<path d="M81.3474 1.4454V6.29573C81.3991 6.29573 81.4735 6.29896 81.5705 6.30543C81.6675 6.31189 81.7451 6.31513 81.8033 6.31513C82.754 6.31513 83.4686 6.10495 83.9472 5.68459C84.4257 5.25776 84.665 4.62721 84.665 3.79296C84.665 3.06864 84.4484 2.4963 84.0151 2.07594C83.5818 1.65558 82.9965 1.4454 82.2592 1.4454H81.3474ZM76.2933 0.0970066H83.5882C85.1209 0.0970066 86.2882 0.378326 87.0902 0.940964C87.8921 1.5036 88.2931 2.32169 88.2931 3.39523C88.2931 4.35236 87.9794 5.11548 87.3521 5.68459C86.7312 6.25369 85.8 6.62231 84.5583 6.79046C84.9851 6.87453 85.3602 6.99094 85.6836 7.13968C86.0069 7.28196 86.2818 7.45657 86.5081 7.66352C87.019 8.12268 87.4976 8.95371 87.9438 10.1566C88.0473 10.4217 88.1249 10.6255 88.1766 10.7677C88.4159 11.3627 88.694 11.7604 89.0109 11.9609C89.3343 12.1549 89.8322 12.2519 90.5048 12.2519H90.7376V13.4257C90.2008 13.4645 89.7061 13.4936 89.2534 13.513C88.8072 13.5324 88.403 13.5421 88.0408 13.5421C87.4006 13.5421 86.838 13.4548 86.3529 13.2802C85.8679 13.1056 85.4702 12.8501 85.1597 12.5138C84.8428 12.1711 84.5518 11.505 84.2867 10.5155C84.1703 10.0951 84.0765 9.7815 84.0054 9.57455C83.7596 8.86317 83.4492 8.36197 83.0741 8.07095C82.699 7.77346 82.1881 7.62472 81.5414 7.62472H81.3474V11.8154L81.6578 12.1937L82.9674 12.2713V13.4257H76.2933V12.2713L77.5641 12.1937L77.8842 11.8154V1.62001L77.5641 1.32899L76.2933 1.25138V0.0970066Z" fill="#481EC0"/>
<path d="M93.9481 9.76856C94.472 9.76856 94.9182 9.95611 95.2868 10.3312C95.6619 10.6998 95.8495 11.1493 95.8495 11.6796C95.8495 12.1905 95.6619 12.6303 95.2868 12.9989C94.9117 13.361 94.4655 13.5421 93.9481 13.5421C93.4308 13.5421 92.9878 13.361 92.6191 12.9989C92.257 12.6367 92.0759 12.197 92.0759 11.6796C92.0759 11.1428 92.257 10.6901 92.6191 10.3215C92.9813 9.95287 93.4243 9.76856 93.9481 9.76856Z" fill="#481EC0"/>
<path d="M98.0608 13.4257V12.2713L99.3898 12.1937L99.7099 11.8154V1.62001L99.3898 1.32899L98.0608 1.25138V0.0970066H104.735V1.25138L103.561 1.34839L103.251 1.62001V6.61585H103.687L108.091 1.58121L107.994 1.34839L106.801 1.25138V0.0970066H111.768V1.25138L110.264 1.34839L106.704 5.40327L110.856 12.1549L112.331 12.2713V13.4257H107.218V12.6497L104.182 7.68292H103.251V11.8154L103.561 12.1937L104.735 12.2713V13.4257H98.0608Z" fill="#481EC0"/>
<path d="M113.591 0.0970066H123.864V1.4648L117.161 12.0579H121.594L121.837 11.7766L122.176 9.29323H124V13.4257H113.29V12.0579L119.984 1.426H116.055L115.677 1.68791L115.337 4.04517H113.591V0.0970066Z" fill="#481EC0"/>
<path d="M98.0608 13.4259V12.2715L99.3898 12.1939L99.7099 11.8156V1.62017L99.3898 1.32915L98.0608 1.25155V0.097168H104.735V1.25155L103.561 1.34855L103.251 1.62017V6.61601H103.687L108.091 1.58137L107.994 1.34855L106.801 1.25155V0.097168H111.768V1.25155L110.264 1.34855L106.704 5.40343L110.856 12.1551L112.33 12.2715V13.4259H107.218V12.6498L104.182 7.68308H103.251V11.8156L103.561 12.1939L104.735 12.2715V13.4259H98.0608Z" fill="#FFA050"/>
<path d="M113.591 0.097168H123.864V1.46496L117.161 12.0581H121.594L121.837 11.7768L122.176 9.29339H124V13.4259H113.29V12.0581L119.984 1.42616H116.055L115.677 1.68808L115.337 4.04534H113.591V0.097168Z" fill="#FFA050"/>
</svg>
