<svg width="184" height="36" viewBox="0 0 184 36" fill="none" xmlns="http://www.w3.org/2000/svg">
<path d="M54.568 20.952C54.568 22.304 54.316 23.46 53.812 24.42C53.308 25.372 52.572 26.1 51.604 26.604C50.644 27.108 49.468 27.36 48.076 27.36C46.692 27.36 45.516 27.108 44.548 26.604C43.58 26.1 42.844 25.372 42.34 24.42C41.836 23.46 41.584 22.304 41.584 20.952V10.608L41.752 10.452H43.156C43.892 10.452 44.456 10.644 44.848 11.028C45.24 11.404 45.436 12.02 45.436 12.876V20.988C45.436 22.084 45.636 22.912 46.036 23.472C46.436 24.024 47.116 24.3 48.076 24.3C49.044 24.3 49.728 24.024 50.128 23.472C50.528 22.912 50.728 22.084 50.728 20.988V10.608C51.048 10.544 51.376 10.504 51.712 10.488C52.056 10.472 52.352 10.464 52.6 10.464C52.832 10.464 53.14 10.472 53.524 10.488C53.916 10.504 54.264 10.544 54.568 10.608V20.952ZM56.5319 25.572C56.5799 25.028 56.7479 24.496 57.0359 23.976C57.3239 23.448 57.6519 23.024 58.0199 22.704C58.6919 23.104 59.4559 23.468 60.3119 23.796C61.1679 24.116 62.0239 24.276 62.8799 24.276C63.5759 24.276 64.0759 24.108 64.3799 23.772C64.6839 23.436 64.8359 23.076 64.8359 22.692C64.8359 22.436 64.7519 22.144 64.5839 21.816C64.4159 21.48 63.9959 21.172 63.3239 20.892L60.4319 19.692C59.4399 19.276 58.6199 18.72 57.9719 18.024C57.3239 17.328 56.9999 16.408 56.9999 15.264C56.9999 14.264 57.2599 13.388 57.7799 12.636C58.2999 11.884 58.9999 11.3 59.8799 10.884C60.7679 10.46 61.7559 10.248 62.8439 10.248C63.9799 10.248 65.0439 10.396 66.0359 10.692C67.0359 10.988 67.8479 11.3 68.4719 11.628C68.4399 12.18 68.3079 12.712 68.0759 13.224C67.8519 13.728 67.5519 14.152 67.1759 14.496C66.5679 14.208 65.8559 13.944 65.0399 13.704C64.2239 13.456 63.4919 13.332 62.8439 13.332C62.1559 13.332 61.6639 13.488 61.3679 13.8C61.0799 14.112 60.9359 14.428 60.9359 14.748C60.9359 15.052 61.0359 15.324 61.2359 15.564C61.4439 15.804 61.8119 16.036 62.3399 16.26L65.2919 17.472C66.0679 17.792 66.7239 18.192 67.2599 18.672C67.8039 19.144 68.2159 19.68 68.4959 20.28C68.7759 20.872 68.9159 21.516 68.9159 22.212C68.9159 23.18 68.6799 24.056 68.2079 24.84C67.7439 25.616 67.0439 26.232 66.1079 26.688C65.1719 27.136 64.0039 27.36 62.6039 27.36C61.6359 27.36 60.6039 27.208 59.5079 26.904C58.4119 26.592 57.4199 26.148 56.5319 25.572ZM69.2551 13.8C69.1991 13.512 69.1631 13.232 69.1471 12.96C69.1311 12.68 69.1231 12.432 69.1231 12.216C69.1231 11.992 69.1311 11.74 69.1471 11.46C69.1631 11.18 69.1991 10.896 69.2551 10.608H81.1351C81.1991 10.808 81.2471 11.044 81.2791 11.316C81.3111 11.58 81.3271 11.836 81.3271 12.084C81.3271 12.708 81.1631 13.152 80.8351 13.416C80.5151 13.672 80.0111 13.8 79.3231 13.8H78.6151C78.4391 13.8 78.1871 13.796 77.8591 13.788C77.5391 13.78 77.2871 13.776 77.1031 13.776H73.2511C73.0751 13.776 72.8231 13.78 72.4951 13.788C72.1671 13.796 71.9151 13.8 71.7391 13.8H69.2551ZM73.2511 15.552C73.2511 15.224 73.2551 14.932 73.2631 14.676C73.2711 14.412 73.2751 14.112 73.2751 13.776V12.192H77.0791V13.776C77.0791 14.112 77.0831 14.412 77.0911 14.676C77.0991 14.932 77.1031 15.224 77.1031 15.552V27C76.7751 27.056 76.4391 27.092 76.0951 27.108C75.7511 27.132 75.4471 27.144 75.1831 27.144C74.9111 27.144 74.6031 27.132 74.2591 27.108C73.9151 27.092 73.5791 27.056 73.2511 27V15.552ZM85.3283 10.608C85.6323 10.56 85.9963 10.524 86.4203 10.5C86.8523 10.476 87.2283 10.464 87.5483 10.464C87.8523 10.464 88.2203 10.476 88.6523 10.5C89.0923 10.524 89.4643 10.568 89.7683 10.632L94.9283 26.748C94.6643 26.9 94.3203 27.016 93.8963 27.096C93.4803 27.176 93.0923 27.216 92.7323 27.216C92.1243 27.216 91.6483 27.076 91.3043 26.796C90.9603 26.508 90.6723 25.952 90.4403 25.128L88.7243 19.044C88.5403 18.372 88.3243 17.58 88.0763 16.668C87.8363 15.756 87.6123 14.904 87.4043 14.112H87.2603C87.1803 14.552 87.0723 15.044 86.9363 15.588C86.8003 16.132 86.6563 16.676 86.5043 17.22C86.3603 17.756 86.2243 18.244 86.0963 18.684L83.6483 27.024C83.4083 27.08 83.1523 27.116 82.8803 27.132C82.6083 27.156 82.3203 27.168 82.0163 27.168C81.7283 27.168 81.4003 27.144 81.0323 27.096C80.6723 27.048 80.3843 26.984 80.1683 26.904L80.0243 26.7L85.3283 10.608ZM85.6163 23.568C85.5043 23.568 85.3723 23.568 85.2203 23.568C85.0763 23.56 84.9323 23.556 84.7883 23.556C84.6443 23.548 84.5123 23.544 84.3923 23.544H82.3763L83.5403 20.556H85.3163C85.4283 20.556 85.5563 20.556 85.7003 20.556C85.8443 20.548 85.9883 20.544 86.1323 20.544C86.2763 20.536 86.4043 20.532 86.5163 20.532H88.2683C88.3883 20.532 88.5163 20.536 88.6523 20.544C88.7963 20.544 88.9403 20.548 89.0843 20.556C89.2363 20.556 89.3683 20.556 89.4803 20.556H91.3163L92.2883 23.544H90.2603C90.1483 23.544 90.0163 23.548 89.8643 23.556C89.7203 23.556 89.5723 23.56 89.4203 23.568C89.2763 23.568 89.1483 23.568 89.0363 23.568H85.6163ZM101.821 15.948C102.053 15.628 102.357 15.24 102.733 14.784C103.117 14.32 103.457 13.924 103.753 13.596L103.681 13.524C103.401 13.556 103.097 13.588 102.769 13.62C102.441 13.644 102.109 13.664 101.773 13.68C101.445 13.696 101.125 13.708 100.813 13.716C100.501 13.724 100.225 13.728 99.985 13.728H96.541C96.485 13.496 96.445 13.276 96.421 13.068C96.405 12.86 96.397 12.652 96.397 12.444C96.397 12.116 96.421 11.808 96.469 11.52C96.517 11.232 96.581 10.928 96.661 10.608H107.281C107.449 11.208 107.569 11.66 107.641 11.964C107.713 12.26 107.757 12.476 107.773 12.612C107.797 12.748 107.809 12.864 107.809 12.96C107.809 13.176 107.777 13.396 107.713 13.62C107.657 13.844 107.549 14.072 107.389 14.304L102.037 21.648C101.805 21.968 101.513 22.344 101.161 22.776C100.809 23.2 100.477 23.576 100.165 23.904L100.237 23.976C100.757 23.936 101.357 23.9 102.037 23.868C102.725 23.828 103.325 23.808 103.837 23.808H105.169C105.753 23.808 106.269 23.752 106.717 23.64C107.173 23.528 107.561 23.396 107.881 23.244C107.945 23.476 108.001 23.748 108.049 24.06C108.105 24.364 108.133 24.668 108.133 24.972C108.133 25.66 107.897 26.172 107.425 26.508C106.961 26.836 106.361 27 105.625 27H96.445C96.325 26.432 96.233 26.004 96.169 25.716C96.113 25.42 96.073 25.204 96.049 25.068C96.033 24.924 96.025 24.8 96.025 24.696C96.025 24.464 96.061 24.224 96.133 23.976C96.213 23.72 96.329 23.488 96.481 23.28L101.821 15.948ZM114.513 13.8C114.457 13.512 114.421 13.232 114.405 12.96C114.389 12.68 114.381 12.432 114.381 12.216C114.381 11.992 114.389 11.74 114.405 11.46C114.421 11.18 114.457 10.896 114.513 10.608H126.393C126.457 10.808 126.505 11.044 126.537 11.316C126.569 11.58 126.585 11.836 126.585 12.084C126.585 12.708 126.421 13.152 126.093 13.416C125.773 13.672 125.269 13.8 124.581 13.8H123.873C123.697 13.8 123.445 13.796 123.117 13.788C122.797 13.78 122.545 13.776 122.361 13.776H118.509C118.333 13.776 118.081 13.78 117.753 13.788C117.425 13.796 117.173 13.8 116.997 13.8H114.513ZM118.509 15.552C118.509 15.224 118.513 14.932 118.521 14.676C118.529 14.412 118.533 14.112 118.533 13.776V12.192H122.337V13.776C122.337 14.112 122.341 14.412 122.349 14.676C122.357 14.932 122.361 15.224 122.361 15.552V27C122.033 27.056 121.697 27.092 121.353 27.108C121.009 27.132 120.705 27.144 120.441 27.144C120.169 27.144 119.861 27.132 119.517 27.108C119.173 27.092 118.837 27.056 118.509 27V15.552ZM128.391 10.608C128.695 10.544 129.031 10.504 129.399 10.488C129.775 10.472 130.079 10.464 130.311 10.464C130.567 10.464 130.871 10.472 131.223 10.488C131.575 10.504 131.911 10.544 132.231 10.608V27C131.911 27.056 131.575 27.092 131.223 27.108C130.871 27.132 130.567 27.144 130.311 27.144C130.079 27.144 129.775 27.132 129.399 27.108C129.031 27.092 128.695 27.056 128.391 27V10.608ZM139.754 27.072H138.134C137.446 27.072 136.902 26.872 136.502 26.472C136.102 26.072 135.902 25.524 135.902 24.828V10.608L136.07 10.452H137.474C138.21 10.452 138.774 10.644 139.166 11.028C139.558 11.404 139.754 12.02 139.754 12.876V27.072ZM146.162 23.76C146.162 24.976 145.962 25.832 145.562 26.328C145.17 26.824 144.498 27.072 143.546 27.072H138.134L136.07 24.288C137.118 24.104 138.154 23.972 139.178 23.892C140.21 23.804 141.15 23.76 141.998 23.76H146.162ZM148.441 10.776L148.609 10.608H152.221V13.764C152.221 14.1 152.225 14.4 152.233 14.664C152.241 14.928 152.245 15.224 152.245 15.552V22.152C152.245 22.464 152.241 22.748 152.233 23.004C152.225 23.26 152.221 23.552 152.221 23.88V27.072H150.649C149.961 27.072 149.421 26.872 149.029 26.472C148.637 26.072 148.441 25.524 148.441 24.828V10.776ZM157.525 17.196C157.613 17.428 157.673 17.696 157.705 18C157.737 18.304 157.753 18.56 157.753 18.768C157.753 18.984 157.737 19.236 157.705 19.524C157.673 19.812 157.613 20.08 157.525 20.328H153.865C153.665 20.328 153.381 20.328 153.013 20.328C152.645 20.32 152.265 20.312 151.873 20.304C151.489 20.296 151.169 20.288 150.913 20.28V17.244C151.169 17.236 151.489 17.228 151.873 17.22C152.265 17.212 152.645 17.208 153.013 17.208C153.381 17.2 153.665 17.196 153.865 17.196H157.525ZM158.953 10.608C159.017 10.896 159.053 11.168 159.061 11.424C159.077 11.672 159.085 11.904 159.085 12.12C159.085 12.336 159.057 12.604 159.001 12.924C158.953 13.236 158.877 13.536 158.773 13.824H153.865C153.665 13.824 153.381 13.824 153.013 13.824C152.645 13.816 152.265 13.808 151.873 13.8C151.489 13.792 151.169 13.784 150.913 13.776V10.608H158.953ZM159.553 23.856C159.553 24.912 159.389 25.712 159.061 26.256C158.733 26.8 158.057 27.072 157.033 27.072H150.913V23.976C151.433 23.952 151.929 23.928 152.401 23.904C152.881 23.872 153.413 23.856 153.997 23.856H159.553ZM174.588 11.964C174.548 12.508 174.348 13.04 173.988 13.56C173.636 14.08 173.264 14.468 172.872 14.724C172.288 14.332 171.648 14.02 170.952 13.788C170.264 13.548 169.584 13.428 168.912 13.428C168.104 13.428 167.404 13.62 166.812 14.004C166.22 14.388 165.76 14.984 165.432 15.792C165.112 16.6 164.952 17.648 164.952 18.936C164.952 20.808 165.296 22.176 165.984 23.04C166.68 23.904 167.672 24.336 168.96 24.336C169.744 24.336 170.448 24.264 171.072 24.12C171.696 23.976 172.212 23.848 172.62 23.736L174.624 26.364C174.16 26.516 173.6 26.672 172.944 26.832C172.296 26.984 171.58 27.108 170.796 27.204C170.012 27.308 169.18 27.36 168.3 27.36C167.068 27.36 165.996 27.164 165.084 26.772C164.172 26.38 163.416 25.816 162.816 25.08C162.216 24.344 161.768 23.456 161.472 22.416C161.176 21.376 161.028 20.208 161.028 18.912C161.028 17.456 161.24 16.188 161.664 15.108C162.088 14.02 162.664 13.116 163.392 12.396C164.12 11.676 164.94 11.14 165.852 10.788C166.764 10.428 167.708 10.248 168.684 10.248C169.78 10.248 170.832 10.408 171.84 10.728C172.856 11.04 173.772 11.452 174.588 11.964ZM171.024 22.548C171.024 21.98 171.044 21.38 171.084 20.748C171.124 20.108 171.22 19.52 171.372 18.984L174.624 20.064V26.364L171.024 26.412V22.548ZM172.092 17.688C173.044 17.688 173.704 17.912 174.072 18.36C174.44 18.8 174.624 19.368 174.624 20.064V20.88H169.896C169.28 20.88 168.82 20.764 168.516 20.532C168.212 20.3 168.06 19.88 168.06 19.272C168.06 19.016 168.084 18.744 168.132 18.456C168.188 18.168 168.256 17.912 168.336 17.688H172.092ZM177.727 10.608C178.031 10.544 178.367 10.504 178.735 10.488C179.111 10.472 179.415 10.464 179.647 10.464C179.903 10.464 180.207 10.472 180.559 10.488C180.911 10.504 181.247 10.544 181.567 10.608V27C181.247 27.056 180.911 27.092 180.559 27.108C180.207 27.132 179.903 27.144 179.647 27.144C179.415 27.144 179.111 27.132 178.735 27.108C178.367 27.092 178.031 27.056 177.727 27V10.608Z" fill="#363636"/>
<path d="M14.5116 23.2185C15.5269 20.6751 18.4118 19.4363 20.9552 20.4516L17.6143 28.8208L13.0091 26.9824L14.5116 23.2185Z" fill="#6399FF"/>
<path d="M29.9999 22.8957C29.9999 25.2252 29.5535 27.2171 28.6607 28.8712C27.7679 30.5115 26.4642 31.7659 24.7495 32.6343C23.0489 33.5027 20.9657 33.9369 18.4999 33.9369C16.0483 33.9369 13.9652 33.5027 12.2504 32.6343C10.5357 31.7659 9.23197 30.5115 8.33918 28.8712C7.44639 27.2171 7 25.2252 7 22.8957V5.07253C7 5.07253 7.76666 4.80374 8.32045 5.07253C8.87424 5.34133 9.29999 5.5704 9.29999 5.5704C10.8333 6.33706 11.6 7.87039 12.2504 9.40371C13.1333 13.237 13.1333 16.3037 13.1333 17.837L13.4632 22.9577C13.9 24.737 14.1777 26.2728 14.8863 27.2377C15.5948 28.1889 16.7994 28.6644 18.4999 28.6644C20.2147 28.6644 21.4263 28.1889 22.1349 27.2377C22.8434 26.2728 23.1977 24.8462 23.1977 22.9577V7.23327C23.7646 7.123 24.0381 5.59797 24.6332 5.5704C25.2426 5.54283 26.0461 4.80374 26.4854 4.80374C26.8964 4.80374 27.4703 4.8382 28.1505 4.86577C28.8449 4.89333 29.4614 4.69349 29.9999 4.80377V22.8957Z" fill="url(#paint0_linear_675_21050)"/>
<path d="M29.9999 22.8957C29.9999 25.2252 29.5535 27.2171 28.6607 28.8712C27.7679 30.5115 26.4642 31.7659 24.7495 32.6343C23.0489 33.5027 20.9657 33.9369 18.4999 33.9369C16.0483 33.9369 13.9652 33.5027 12.2504 32.6343C10.5357 31.7659 9.23197 30.5115 8.33918 28.8712C7.44639 27.2171 7 25.2252 7 22.8957V5.07253C7 5.07253 7.76666 4.80374 8.32045 5.07253C8.87424 5.34133 9.29999 5.5704 9.29999 5.5704C10.8333 6.33706 11.6 7.87039 12.2504 9.40371C13.1333 13.237 13.1333 16.3037 13.1333 17.837L13.4632 22.9577C13.9 24.737 14.1777 26.2728 14.8863 27.2377C15.5948 28.1889 16.7994 28.6644 18.4999 28.6644C20.2147 28.6644 21.4263 28.1889 22.1349 27.2377C22.8434 26.2728 23.1977 24.8462 23.1977 22.9577V7.23327C23.7646 7.123 24.0381 5.59797 24.6332 5.5704C25.2426 5.54283 26.0461 4.80374 26.4854 4.80374C26.8964 4.80374 27.4703 4.8382 28.1505 4.86577C28.8449 4.89333 29.4614 4.69349 29.9999 4.80377V22.8957Z" fill="url(#paint1_linear_675_21050)"/>
<path d="M19.8175 10.2218C21.4592 6.19492 25.743 3.91549 30 4.80372C30 4.80372 26.2076 9.84166 24.6333 12.4704C23.059 15.0991 17.6968 28.5207 17.7333 28.5703C17.7333 28.5703 16.2 28.5703 15.4333 27.8037C14.6666 27.037 13.9001 24.737 13.9001 24.737L19.8175 10.2218Z" fill="url(#paint2_linear_675_21050)"/>
<defs>
<linearGradient id="paint0_linear_675_21050" x1="11.6" y1="17.837" x2="29.2332" y2="10.1704" gradientUnits="userSpaceOnUse">
<stop stop-color="#1E63E9"/>
<stop offset="1" stop-color="#6398FF"/>
</linearGradient>
<linearGradient id="paint1_linear_675_21050" x1="11.6" y1="17.837" x2="29.2332" y2="10.1704" gradientUnits="userSpaceOnUse">
<stop stop-color="#1E63E9"/>
<stop offset="1" stop-color="#6398FF"/>
</linearGradient>
<linearGradient id="paint2_linear_675_21050" x1="24.6333" y1="7.87042" x2="14.3314" y2="10.768" gradientUnits="userSpaceOnUse">
<stop stop-color="#1E63E9"/>
<stop offset="1" stop-color="#6398FF"/>
</linearGradient>
</defs>
</svg>
