<svg width="100" height="100" viewBox="0 0 100 100" fill="none" xmlns="http://www.w3.org/2000/svg">
<path d="M24.8763 4.16675H12.6263C7.33464 4.16675 4.16797 7.33341 4.16797 12.6251V24.8751C4.16797 30.1667 7.33464 33.3334 12.6263 33.3334H24.8763C30.168 33.3334 33.3346 30.1667 33.3346 24.8751V12.6251C33.3346 7.33341 30.168 4.16675 24.8763 4.16675ZM26.9596 23.1667C28.0013 24.2084 28.0013 25.9167 26.9596 26.9584C26.418 27.4584 25.7096 27.7084 25.043 27.7084C24.3763 27.7084 23.7096 27.4584 23.168 26.9584L18.7096 22.5417L14.3763 26.9584C13.8346 27.4584 13.168 27.7084 12.418 27.7084C11.7513 27.7084 11.0846 27.4584 10.543 26.9584C9.5013 25.9167 9.5013 24.2084 10.543 23.1667L15.0013 18.7501L10.5846 14.3751C9.54297 13.3334 9.54297 11.6251 10.5846 10.5834C11.6263 9.54175 13.3346 9.54175 14.3763 10.5834L18.7096 15.0001L23.1263 10.5834C24.168 9.54175 25.8763 9.54175 26.918 10.5834C27.9596 11.6251 27.9596 13.3334 26.918 14.3751L22.543 18.7501L26.9596 23.1667Z" fill="#888888"/>
<path opacity="0.4" d="M69.293 8.33325H32.418C33.0013 9.54159 33.3346 10.9583 33.3346 12.6249V24.8749C33.3346 30.1666 30.168 33.3333 24.8763 33.3333H12.6263C11.8346 33.3333 11.1263 33.2499 10.418 33.0833V71.3749C10.418 82.5832 19.5013 91.6666 30.7096 91.6666H63.918C64.6263 91.6666 65.3346 91.4166 65.8763 90.8332C72.043 84.6249 82.793 73.7916 88.8346 67.7082C89.3763 67.1666 89.5846 66.5416 89.5846 65.9166V28.6249C89.5846 17.4166 80.5013 8.33325 69.293 8.33325Z" fill="#888888"/>
<path d="M89.582 65.9167C89.582 66.5417 89.3737 67.1667 88.832 67.7083C82.7904 73.7917 72.0404 84.625 65.8737 90.8333C65.332 91.4167 64.6237 91.6667 63.9154 91.6667C62.5404 91.6667 61.207 90.5833 61.207 89V74.4167C61.207 68.3333 66.3737 63.2917 72.707 63.2917C76.6654 63.25 82.1654 63.25 86.8737 63.25C88.4987 63.25 89.582 64.5417 89.582 65.9167Z" fill="#888888"/>
<path d="M61.5846 52.9583H30.668C28.918 52.9583 27.543 51.5416 27.543 49.8333C27.543 48.1249 28.9596 46.7083 30.668 46.7083H61.5846C63.3346 46.7083 64.7096 48.1249 64.7096 49.8333C64.7096 51.5416 63.3346 52.9583 61.5846 52.9583Z" fill="#888888"/>
<path d="M50.0013 68.4167H30.668C28.918 68.4167 27.543 67.0001 27.543 65.2917C27.543 63.5417 28.9596 62.1667 30.668 62.1667H50.0013C51.7513 62.1667 53.1263 63.5834 53.1263 65.2917C53.1263 67.0001 51.7513 68.4167 50.0013 68.4167Z" fill="#888888"/>
</svg>
