<svg width="22" height="30" viewBox="0 0 22 30" fill="none" xmlns="http://www.w3.org/2000/svg">
<path fill-rule="evenodd" clip-rule="evenodd" d="M3.93459 0.518555H13.6179L21.8248 9.07284V25.711C21.8248 27.7953 20.1385 29.4815 18.0614 29.4815H3.93459C1.85031 29.4815 0.164063 27.7953 0.164063 25.711V4.28908C0.164026 2.2048 1.85027 0.518555 3.93459 0.518555V0.518555Z" fill="#E03303"/>
<path opacity="0.302" fill-rule="evenodd" clip-rule="evenodd" d="M13.6016 0.518555V9.0077H21.8157L13.6016 0.518555Z" fill="white"/>
<path d="M4.71094 21.2384V15.9771H6.9472C7.49721 15.9771 7.93869 16.129 8.27159 16.4402C8.59725 16.7442 8.76372 17.1495 8.76372 17.6633C8.76372 18.1699 8.59725 18.5824 8.27159 18.8864C7.93869 19.1903 7.49721 19.3423 6.9472 19.3423H6.04979V21.2384H4.71094ZM6.04982 18.1989H6.79526C6.99788 18.1989 7.14986 18.1554 7.26568 18.0613C7.37422 17.9673 7.4249 17.8298 7.4249 17.6633C7.4249 17.4896 7.37426 17.3593 7.26568 17.2653C7.1499 17.1712 6.99792 17.1205 6.79526 17.1205H6.04982V18.1989ZM9.32823 21.2384V15.9771H11.5645C12.1145 15.9771 12.556 16.129 12.8889 16.4402C13.2218 16.7442 13.381 17.1495 13.381 17.6633C13.381 18.1699 13.2218 18.5824 12.8889 18.8864C12.556 19.1903 12.1145 19.3423 11.5645 19.3423H10.6743V21.2384H9.32823ZM10.6743 18.1989H11.4125C11.6151 18.1989 11.7744 18.1554 11.8829 18.0613C11.9915 17.9673 12.0494 17.8298 12.0494 17.6633C12.0494 17.4896 11.9915 17.3593 11.8829 17.2653C11.7744 17.1712 11.6152 17.1205 11.4125 17.1205H10.6743V18.1989ZM15.3133 21.2384V17.1205H13.8152V15.9771H18.1648V17.1205H16.6594V21.2384H15.3133Z" fill="white"/>
</svg>
