<svg width="40" height="40" viewBox="0 0 40 40" fill="none" xmlns="http://www.w3.org/2000/svg">
<path opacity="0.4" d="M14.9987 3.33337C10.632 3.33337 7.08203 6.88337 7.08203 11.25C7.08203 15.5334 10.432 19 14.7987 19.15C14.932 19.1334 15.0654 19.1334 15.1654 19.15C15.1987 19.15 15.2154 19.15 15.2487 19.15C15.2654 19.15 15.2654 19.15 15.282 19.15C19.5487 19 22.8987 15.5334 22.9154 11.25C22.9154 6.88337 19.3654 3.33337 14.9987 3.33337Z" fill="#0387B1"/>
<path d="M23.4656 23.5833C18.8156 20.4833 11.2323 20.4833 6.54896 23.5833C4.43229 25 3.26562 26.9166 3.26562 28.9666C3.26562 31.0166 4.43229 32.9166 6.53229 34.3166C8.86563 35.8833 11.9323 36.6666 14.999 36.6666C18.0656 36.6666 21.1323 35.8833 23.4656 34.3166C25.5656 32.9 26.7323 31 26.7323 28.9333C26.7156 26.8833 25.5656 24.9833 23.4656 23.5833Z" fill="#0387B1"/>
<path opacity="0.4" d="M33.3156 12.2333C33.5823 15.4666 31.2823 18.3 28.099 18.6833C28.0823 18.6833 28.0823 18.6833 28.0656 18.6833H28.0156C27.9156 18.6833 27.8156 18.6833 27.7323 18.7166C26.1156 18.8 24.6323 18.2833 23.5156 17.3333C25.2323 15.8 26.2156 13.5 26.0156 11C25.899 9.64996 25.4323 8.41663 24.7323 7.36663C25.3656 7.04996 26.099 6.84996 26.849 6.7833C30.1156 6.49996 33.0323 8.9333 33.3156 12.2333Z" fill="#0387B1"/>
<path d="M36.6497 27.65C36.5164 29.2666 35.4831 30.6666 33.7497 31.6166C32.0831 32.5333 29.9831 32.9666 27.8997 32.9166C29.0997 31.8333 29.7997 30.4833 29.9331 29.05C30.0997 26.9833 29.1164 25 27.1497 23.4166C26.0331 22.5333 24.7331 21.8333 23.3164 21.3166C26.9997 20.25 31.6331 20.9666 34.4831 23.2666C36.0164 24.5 36.7997 26.05 36.6497 27.65Z" fill="#0387B1"/>
</svg>
