<svg width="24" height="25" viewBox="0 0 24 25" fill="none" xmlns="http://www.w3.org/2000/svg">
<path d="M15.3909 5.71L16.8009 8.53C16.9909 8.92 17.5009 9.29 17.9309 9.37L20.4809 9.79C22.1109 10.06 22.4909 11.24 21.3209 12.42L19.3309 14.41C19.0009 14.74 18.8109 15.39 18.9209 15.86L19.4909 18.32C19.9409 20.26 18.9009 21.02 17.1909 20L14.8009 18.58C14.3709 18.32 13.6509 18.32 13.2209 18.58L10.8309 20C9.12091 21.01 8.08093 20.26 8.53093 18.32L9.10093 15.86C9.21093 15.4 9.02093 14.75 8.69093 14.41L6.70094 12.42C5.53094 11.25 5.91094 10.07 7.54094 9.79L10.0909 9.37C10.5209 9.3 11.0309 8.92 11.2209 8.53L12.6309 5.71C13.3809 4.18 14.6209 4.18 15.3909 5.71Z" fill="#FF8B0D"/>
<path opacity="0.4" d="M8 6.25H2C1.59 6.25 1.25 5.91 1.25 5.5C1.25 5.09 1.59 4.75 2 4.75H8C8.41 4.75 8.75 5.09 8.75 5.5C8.75 5.91 8.41 6.25 8 6.25Z" fill="#FF8B0D"/>
<path opacity="0.4" d="M5 20.25H2C1.59 20.25 1.25 19.91 1.25 19.5C1.25 19.09 1.59 18.75 2 18.75H5C5.41 18.75 5.75 19.09 5.75 19.5C5.75 19.91 5.41 20.25 5 20.25Z" fill="#FF8B0D"/>
<path opacity="0.4" d="M3 13.25H2C1.59 13.25 1.25 12.91 1.25 12.5C1.25 12.09 1.59 11.75 2 11.75H3C3.41 11.75 3.75 12.09 3.75 12.5C3.75 12.91 3.41 13.25 3 13.25Z" fill="#FF8B0D"/>
</svg>
