<svg width="24" height="24" viewBox="0 0 24 24" fill="none" xmlns="http://www.w3.org/2000/svg">
<path d="M12 22C17.5228 22 22 17.5228 22 12C22 6.47715 17.5228 2 12 2C6.47715 2 2 6.47715 2 12C2 17.5228 6.47715 22 12 22Z" fill="#AFB9D7"/>
<path d="M14.9694 10.2291L12.0694 8.55914C11.3494 8.13914 10.4794 8.13914 9.75938 8.55914C9.03938 8.97914 8.60938 9.71914 8.60938 10.5591V13.9091C8.60938 14.7391 9.03938 15.4891 9.75938 15.9091C10.1194 16.1191 10.5194 16.2191 10.9094 16.2191C11.3094 16.2191 11.6994 16.1191 12.0594 15.9091L14.9594 14.2391C15.6794 13.8191 16.1094 13.0791 16.1094 12.2391C16.1294 11.3991 15.6994 10.6491 14.9694 10.2291Z" fill="white"/>
</svg>
