<svg width="24" height="24" viewBox="0 0 24 24" fill="none" xmlns="http://www.w3.org/2000/svg">
<path d="M12 22C17.5228 22 22 17.5228 22 12C22 6.47715 17.5228 2 12 2C6.47715 2 2 6.47715 2 12C2 17.5228 6.47715 22 12 22Z" fill="#03B113"/>
<path d="M9.87268 15.5364C10.059 15.7227 10.3124 15.8296 10.5795 15.8296C10.8465 15.8296 11.0999 15.7227 11.2862 15.5364L16.9562 9.86639C17.3439 9.47875 17.3439 8.84046 16.9562 8.45283C16.5686 8.0652 15.9303 8.0652 15.5427 8.45283L10.5795 13.4161L8.45623 11.2928C8.0686 10.9052 7.43031 10.9052 7.04268 11.2928C6.65505 11.6805 6.65505 12.3188 7.04268 12.7064L9.87268 15.5364Z" fill="white" stroke="#03B113" stroke-width="0.5"/>
</svg>
