<svg width="40" height="40" viewBox="0 0 40 40" fill="none" xmlns="http://www.w3.org/2000/svg">
<path d="M36.6657 18.2833V21.7167C36.6657 22.6334 35.9324 23.3833 34.9991 23.4167H31.7324C29.9324 23.4167 28.2824 22.1 28.1324 20.3C28.0324 19.25 28.4324 18.2667 29.1324 17.5833C29.749 16.95 30.599 16.5834 31.5324 16.5834H34.9991C35.9324 16.6167 36.6657 17.3666 36.6657 18.2833Z" fill="#FF8B0D"/>
<path opacity="0.4" d="M29.132 17.5834C28.432 18.2667 28.032 19.25 28.132 20.3C28.282 22.1 29.932 23.4167 31.732 23.4167H34.9987V25.8334C34.9987 30.8334 31.6654 34.1667 26.6654 34.1667H11.6654C6.66536 34.1667 3.33203 30.8334 3.33203 25.8334V14.1667C3.33203 9.63337 6.06537 6.4667 10.3154 5.93337C10.7487 5.8667 11.1987 5.83337 11.6654 5.83337H26.6654C27.0987 5.83337 27.5154 5.85002 27.9154 5.91669C32.2154 6.41669 34.9987 9.60004 34.9987 14.1667V16.5834H31.532C30.5987 16.5834 29.7487 16.95 29.132 17.5834Z" fill="#FF8B0D"/>
<path d="M21.668 16.25H11.668C10.9846 16.25 10.418 15.6833 10.418 15C10.418 14.3167 10.9846 13.75 11.668 13.75H21.668C22.3513 13.75 22.918 14.3167 22.918 15C22.918 15.6833 22.3513 16.25 21.668 16.25Z" fill="#FF8B0D"/>
</svg>
